# xmcd
#
# Track frame offsets:
#	150
#	12677
#	25555
#	38985
#	52010
#	64265
#	78672
#	94212
#	106827
#	120357
#	132440
#	146697
#	157817
#	171452
#	184975
#	195447
#	207772
#	220442
#
# Disc length: 3078 seconds
# Revision: 0
# Processed by: cddbd v1.5.2PL0 Copyright (c) Steve Scherf et al.
# Submitted via: dBpowerAMP V12.0
#
DISCID=050c0412
DTITLE=Smokey Robinson and The Miracles - Smokey Robinson and The Miracles
DYEAR=1900
DGENRE=
TTITLE0=Ooo Baby Baby
TTITLE1=My Girl Has Gone
TTITLE2=Swept For You Baby
TTITLE3=Just Losing You
TTITLE4=Whole Lot Of Shakin' In My Heart (Since I Met You)
TTITLE5=It's A Good Feeling
TTITLE6=You Only Build Me Up To Tear Me Down
TTITLE7=The Soulful Shack
TTITLE8=I Heard It Through The Grapevine
TTITLE9=After You Put Back The Pieces (I'll Still Have A Broken Heart)
TTITLE10=Everybody Needs Love
TTITLE11=(Come 'Round Here) I'm The One You Need
TTITLE12=The Tears Of A Clown
TTITLE13=The Love I Saw In You Was Just A Mirage
TTITLE14=The Composer
TTITLE15=I Second That Emotion
TTITLE16=Much Better Off
TTITLE17=Yester Love
EXTD=
EXTT0=
EXTT1=
EXTT2=
EXTT3=
EXTT4=
EXTT5=
EXTT6=
EXTT7=
EXTT8=
EXTT9=
EXTT10=
EXTT11=
EXTT12=
EXTT13=
EXTT14=
EXTT15=
EXTT16=
EXTT17=
PLAYORDER=
